PathFileType	4	(X/Y/Z)	65_2_97_p1_0-128.trc
DataRate	CameraRate	NumFrames	NumMarkers	Units	OrigDataRate	OrigDataStartFrame	OrigNumFrames
46.0	46.0	6	27	m	46.0	32	129
Frame#	Time	RHip			RKnee			RAnkle			RBigToe			RSmallToe			RHeel			LHip			LKnee			LAnkle			LBigToe			LSmallToe			LHeel			Neck			Head			Nose			RShoulder			RElbow			RWrist			RThumb			RIndex			RPinky			LShoulder			LElbow			LWrist			LThumb			LIndex			LPinky			
		X1	Y1	Z1	X2	Y2	Z2	X3	Y3	Z3	X4	Y4	Z4	X5	Y5	Z5	X6	Y6	Z6	X7	Y7	Z7	X8	Y8	Z8	X9	Y9	Z9	X10	Y10	Z10	X11	Y11	Z11	X12	Y12	Z12	X13	Y13	Z13	X14	Y14	Z14	X15	Y15	Z15	X16	Y16	Z16	X17	Y17	Z17	X18	Y18	Z18	X19	Y19	Z19	X20	Y20	Z20	X21	Y21	Z21	X22	Y22	Z22	X23	Y23	Z23	X24	Y24	Z24	X25	Y25	Z25	X26	Y26	Z26	X27	Y27	Z27	
32	0.6956521739130435	0.43208440772330264	0.6840417334591564	0.279815588388622	0.37902913269781213	0.8061442578487464	0.7392599368455699	0.3199763334277866	1.0204025135413703	1.145521607115368	0.2716438293376383	0.8052012199746852	1.2049043633094776	0.3511030193528286	0.8284876309023019	1.1929728508537298	0.2896816863252051	1.140671984683398	1.1978452937475985	0.2050859801109826	0.7182071807435622	0.26419603889338583	0.14752175791419875	0.8345957708524976	0.7267902123888076	0.12938948355994553	1.0231326682017525	1.1004204103868729	0.13725970728036802	0.8135149507418609	1.1726723460115769	0.07821682984229707	0.8700118473729872	1.1667353783935883	0.15562938861879827	1.1107193743328996	1.155753691717964	0.3858458266299512	0.49712658978186275	-0.3717718336663915	0.4202315264354114	0.3800861724772554	-0.6239918806309478	0.4186586516679116	0.33719379204781064	-0.44804551253320096	0.5492248671078261	0.5868225820282374	-0.23953749461652618	0.5760187104131539	0.5773785095227587	0.04659802947049171	0.5918504875855781	0.3125927888624249	-0.017830865396032385	0.533106395829529	0.1324269466043308	-0.04455641888353321	0.5356353888735894	0.11407296602523988	-0.04166141012620044	0.577634182448215	0.13782113406865648	0.0040290857616615845	0.20108136120553344	0.5460540604026578	-0.3051440321252883	0.11029774869919282	0.615986534984395	-0.04087888064430778	0.15495311358647895	0.39906145623230727	0.19895911864951468	0.24134538378876114	0.258296578896199	0.2682107509629005	0.22630308434086574	0.25226354849403815	0.31208874205284887	0.17677977429772584	0.3401693564130818	0.3210619224555816
33	0.717391304347826	0.432262108473513	0.6842458954465102	0.2799905389954056	0.3804299003315726	0.8088508097774602	0.7437396273863263	0.32000348611333856	1.0204526544345587	1.1456269435901323	0.27124176030621494	0.8055960968841209	1.205016216157822	0.35094530489636344	0.8274198380012613	1.1970599202833339	0.2896766785180432	1.139539888886989	1.2020376534320714	0.19877993402510236	0.7043602346766783	0.26489287891432056	0.15369291399195606	0.8162495399602977	0.7211664954612094	0.13387097001347584	1.0249134555805843	1.1010943013839822	0.1372209575868266	0.8126495357949756	1.176457957061346	0.07817613525170071	0.8701717499952464	1.1667244942920396	0.15492894618348854	1.1055595945098078	1.1468905011206036	0.3893891641832326	0.4836796945264977	-0.3685936134928764	0.4231149246841883	0.36880430961378724	-0.6164857993396324	0.42175861312885626	0.32603393720868645	-0.44120569571154555	0.5452060724756073	0.5743460057767861	-0.23756326009059295	0.5788764059668575	0.5622703171091996	0.047933495718570945	0.6075994732508304	0.2853668275059885	-0.04031429686604132	0.5605922901242895	0.1285061375207703	-0.09550724109899285	0.587146693892389	0.133309977124397	-0.09460868246764065	0.5962239121307139	0.11689116971037956	-0.035497518049635655	0.2044591676929652	0.5590721515949052	-0.3072524473124999	0.11027184339864457	0.6163017367446897	-0.04065862798001652	0.15327034220690716	0.40184166713584524	0.22017596013447316	0.22694367555618947	0.28321098327655714	0.2956725421372112	0.20729577315459985	0.3059029396155212	0.3361669908748128	0.1616951579425847	0.3369801104150624	0.3406202709399925
34	0.7391304347826086	0.4324387838176454	0.6843745242792325	0.28019486262634286	0.3803981166591332	0.8080791869453652	0.7481725519478257	0.32009079429887044	1.0201218504901317	1.1454668594528974	0.2710421663479722	0.8050315956505563	1.2090206796702285	0.34978134945968703	0.8290310116182458	1.2012778326690445	0.28967535864386784	1.1405476829140653	1.1975676869421343	0.19770005272240285	0.7058071376617534	0.26816461421153587	0.15725052202288764	0.785339919351928	0.717560269578077	0.12939280957616428	1.0227488319474274	1.1002187562677384	0.13736461461388705	0.8126991601140953	1.1765650288824896	0.0782664509455387	0.8699651321513621	1.1667085338790921	0.15533627422267135	1.110783241414182	1.146787811630921	0.39298601673724537	0.4851227688062167	-0.364857919517097	0.4262407660069608	0.38156954930935105	-0.6167452838078701	0.4218609102174503	0.3260093318937976	-0.4409845085506794	0.5446017347642107	0.5740396304085559	-0.23765783174670527	0.5742586688268644	0.5496868308383863	0.04836233157155115	0.6229678875669081	0.2877108171545736	-0.05663716066931906	0.6053042399553326	0.1531788082421726	-0.15201568015081227	0.6291141760009513	0.0987125531020608	-0.14434235568694967	0.6575609316235135	0.11291773674491903	-0.08502911270251162	0.19784404789945823	0.5320749193308093	-0.30253587275992033	0.11015682631286168	0.6166152284472668	-0.03645339968830626	0.14383686040277657	0.41394036808465084	0.22377750259979468	0.20761140506011086	0.3214488701340849	0.31643582835467865	0.18752753447193218	0.31809231899945484	0.33794968378714235	0.14120064027049825	0.36360263024393275	0.345120169837551
35	0.7608695652173914	0.4360983118438721	0.6690558271509762	0.28036562578494506	0.38074661137456745	0.7767236709055727	0.7388811393118163	0.31634354010323984	1.0030388428294756	1.1406246470233916	0.27101900645039867	0.8067822426445395	1.2092084249608441	0.34989809493289203	0.8306210818309951	1.201410193290376	0.29107056466250625	1.1383693181396228	1.1928527331342476	0.1990593447232993	0.6886500316736274	0.2650230772164393	0.15099482828462246	0.8029286193447915	0.7231377496978122	0.1337192835362383	1.0204992030190685	1.0951067460281836	0.13733062997015863	0.8127620006511553	1.1767387640408737	0.07284723621745028	0.886027752706698	1.1709015690491456	0.15478441826898293	1.1032824334014368	1.142516426369955	0.39641486426812056	0.4999039194157585	-0.36053196440382024	0.43039096352483425	0.3819603346541393	-0.6167642698860879	0.4252891930164035	0.3385967316127436	-0.44071107575610885	0.5498409024600736	0.5767040218753064	-0.23754120771106868	0.5748453441160789	0.5507560379213734	0.048228712877663546	0.6313699633992733	0.2813855754563808	-0.08396114637732045	0.6201496579204301	0.1853008998188419	-0.1869567664469628	0.6557667459347563	0.10988890432476274	-0.17971684375299304	0.6715841927493508	0.11231063788543844	-0.12661839730596897	0.20247334147654492	0.5202824174585047	-0.2996333230819556	0.10936800983480124	0.6175406721453601	-0.028551384617731917	0.13955829756999052	0.41421536717757157	0.23130162353696185	0.19684768927187268	0.33903405119669583	0.33263699535430347	0.1664951472591451	0.2921122890005397	0.3485900957196135	0.12209499823370626	0.375823341195104	0.3477990012839235
36	0.782608695652174	0.43234891294404076	0.6843368872863923	0.28016993576266225	0.39100302188096303	0.7783919241171215	0.7518151034460535	0.31999551795212466	1.0202172754822143	1.1455955071221982	0.2712208087969398	0.8066308769536162	1.2091575415173248	0.35105164180957144	0.8297790016780003	1.1970041914081047	0.289588094829619	1.1406026168675425	1.1973704942707726	0.19418476871822285	0.704130328540595	0.2646455759957661	0.15862542800458063	0.7559647949824021	0.7121910899252141	0.12844232188863391	1.019792210104652	1.0948256862046954	0.131730909735388	0.8116547536450011	1.1801289477048118	0.07862734093110223	0.8691470429397545	1.1665293752922647	0.1520189529906669	1.1383264532869497	1.1515921148377875	0.3966476519308795	0.4999942663367771	-0.36027130483780145	0.42692170488277764	0.37052205973823293	-0.6134126449241422	0.4254481180522503	0.3381915215679539	-0.44045011483421576	0.5529745867055594	0.5916867982711564	-0.23216236769140527	0.5728229416987135	0.5218891574202348	0.046541375966060235	0.6524471722150036	0.2936852536507885	-0.11353216749427875	0.658266314863865	0.24122182200651152	-0.24188741566043762	0.681323821704419	0.14559157932886566	-0.2351316000773434	0.6859172113494927	0.11602012428401161	-0.16488140767676035	0.2018721142929207	0.5208348700450817	-0.2961822113421734	0.10804243501537228	0.6205284432952841	-0.018282596907914395	0.13050437969990417	0.42172858007429587	0.24529794475801805	0.18781354724012214	0.34288753316283926	0.33952300501221294	0.1465624805780572	0.3223836376491048	0.37807111161733176	0.11059498381643283	0.4036706019436427	0.3734138212977463
37	0.8043478260869565	0.43131064412736253	0.6854128443055051	0.2840791747413146	0.38527125720357613	0.7510709142647368	0.7550657122974231	0.3162896558877434	1.003123852592719	1.1407233142856903	0.27284723947932726	0.7747636098410533	1.1999336178422624	0.34984693446583914	0.830404598060848	1.201354773807703	0.28956618090459013	1.1407023781809282	1.1974705701703183	0.20651248803663041	0.6889276740714904	0.2688242953628539	0.15832305151914525	0.7281827464236477	0.7196075958385402	0.12860315581559406	1.0217739598731501	1.1041427758800557	0.13174258650536544	0.811737036041845	1.1804348395592492	0.07900112601526524	0.8686898169386701	1.1663518834274254	0.15518417472528245	1.106649321966735	1.1473734975080196	0.3964133832650999	0.5002346280586685	-0.35650394044868594	0.4303879490249152	0.38221119630884215	-0.6138822104010849	0.4254767249056919	0.33899933080426825	-0.43729076104928033	0.5437192585275287	0.5808602002856461	-0.22244049352571366	0.5634964548166569	0.4703102531971793	0.04200179006676688	0.6709231011645949	0.30026127753673154	-0.1473651161954094	0.7015934729209078	0.3073444185968257	-0.28225528663577676	0.728865948968981	0.3130911531848038	-0.285723106691269	0.7437270116025433	0.18913595607213451	-0.2433116569862851	0.2054553342028807	0.5252234248300567	-0.28913065397782683	0.1007631275871964	0.6067911599609958	-0.014071059912334595	0.10075716249606255	0.4875225278579469	0.2581139956488537	0.13267650485204405	0.42948751641426636	0.37894427605540676	0.10922913279517668	0.37257033975153137	0.3974036507715601	0.07909045593374216	0.4287185051654217	0.39794775498431784
